PathFileType	4	(X/Y/Z)	C:\Users\chris\Documents\GitHub\baseballds\vids\pitch5_Sports2D\pitch5_Sports2D_px_person02.trc
DataRate	CameraRate	NumFrames	NumMarkers	Units	OrigDataRate	OrigDataStartFrame	OrigNumFrames
30	30	11	22	m	30	0	149
Frame#	Time	Hip			RHip			RKnee			RAnkle			RBigToe			RSmallToe			RHeel			LHip			LKnee			LAnkle			LBigToe			LSmallToe			LHeel			Neck			Head			Nose			RShoulder			RElbow			RWrist			LShoulder			LElbow			LWrist		
		X1	Y1	Z1	X2	Y2	Z2	X3	Y3	Z3	X4	Y4	Z4	X5	Y5	Z5	X6	Y6	Z6	X7	Y7	Z7	X8	Y8	Z8	X9	Y9	Z9	X10	Y10	Z10	X11	Y11	Z11	X12	Y12	Z12	X13	Y13	Z13	X14	Y14	Z14	X15	Y15	Z15	X16	Y16	Z16	X17	Y17	Z17	X18	Y18	Z18	X19	Y19	Z19	X20	Y20	Z20	X21	Y21	Z21	X22	Y22	Z22
0	0.0	784.4667866234324	422.22733311447536	0.0	763.6889332933018	428.86572133992485	0.0	727.0181819507923	504.5636191597974	0.0	812.6292077312482	538.6761808562298	0.0	853.5820900711753	533.4748923209362	0.0	897.9541568602241	579.8865541361384	0.0	770.7579322151234	542.0960596298937	0.0	753.7741744994598	423.14695091354054	0.0	801.4224570397141	446.454420741216	0.0	767.8270740242854	538.1305365939328	0.0	785.5017245221251	552.7862875378013	0.0	782.7428391741969	563.7646770784522	0.0	748.831027750197	544.5679862358731	0.0	803.2615896453168	343.31161274634275	0.0	836.4541511648799	299.28397989779313	0.0	889.3040349273683	332.73553434573853	0.0	806.0782137765043	372.164704437666	0.0	834.9315618155028	399.03488402408567	0.0	851.3699346788695	329.2869457937109	0.0	796.1053410857298	356.58888600249907	0.0	910.6860684854832	352.3653528017383	0.0	972.355152099148	365.2547986926112	0.0
1	0.03333333333333333	792.9373173124129	426.1375027839862	0.0	775.7115481084388	432.1838393172389	0.0	740.9201058284343	506.0446683636436	0.0	811.5292171784721	537.2482989737586	0.0	848.0815368436758	534.5273417847771	0.0	887.3016700686151	574.9734748968174	0.0	774.023647853913	539.9234771909018	0.0	764.4131667418524	427.1008149471878	0.0	808.8848975980411	454.24911571138324	0.0	780.0487875219064	541.2153881957669	0.0	797.6597398653946	554.7507212495019	0.0	794.7685899694957	564.4366929110787	0.0	762.8726551462593	547.9606626907544	0.0	810.8104624229572	348.90662355566997	0.0	841.0435016554645	306.4120464159513	0.0	888.2374857896139	337.8247191667611	0.0	815.5807152164235	375.50215473719516	0.0	842.1769662276282	402.74628749264275	0.0	855.762029204952	341.4780404606195	0.0	802.4034557677273	360.9990394775293	0.0	903.3732499240142	361.1226741142534	0.0	962.7253058529915	373.0859393618513	0.0
2	0.06666666666666667	801.4061609637154	430.0476690111466	0.0	787.7328399287571	435.50283413776975	0.0	754.8225797516095	507.5254317236196	0.0	810.4312436854392	535.8195744118899	0.0	842.5797763994625	535.5779287390757	0.0	876.6481694411113	570.0622549594146	0.0	777.2883063470164	537.7497839025881	0.0	775.0500000532106	431.0548103172995	0.0	816.3460168045312	462.0438662897969	0.0	792.2700865649701	544.3002004295535	0.0	809.815782945255	556.7191960302765	0.0	806.792236866991	565.1112945880917	0.0	776.9134673167703	551.3534938247956	0.0	818.3588229697916	354.49869906137866	0.0	845.6340290732329	313.53731725153125	0.0	887.1725578304004	342.9117947750473	0.0	825.082354520282	378.83828284417143	0.0	849.4219747903264	406.45883736356853	0.0	860.1536797095054	353.6701453388625	0.0	808.7018690722717	365.4060069461136	0.0	896.0573997533828	369.8735768024929	0.0	953.0916230650048	380.9164762994124	0.0
3	0.1	809.8745317062029	433.96247690581407	0.0	799.7484404737033	438.8291526077952	0.0	768.7383307579094	509.0120376950236	0.0	809.3885316120973	534.3743982238229	0.0	837.1131314033294	536.5985350595835	0.0	866.0383677141524	565.1431119455733	0.0	780.5845875263863	535.556952017318	0.0	785.6874375027157	435.01447053787365	0.0	823.809190561419	469.83439249838284	0.0	804.4801275686182	547.3862552507635	0.0	821.9549645511115	558.705522812546	0.0	818.8011795742838	565.8001122741776	0.0	790.9375937600032	554.745776194792	0.0	825.9157996289587	360.08713731025176	0.0	850.2410712162273	320.6552236753838	0.0	886.1337187641615	347.9996716153513	0.0	834.583746612504	382.17611673623327	0.0	856.6691074736955	410.17710917602267	0.0	864.5639167611796	365.87408454551405	0.0	815.0118492048841	369.8160983450671	0.0	888.7576695225318	378.59923151793515	0.0	943.4451524458229	388.74835838055947	0.0
4	0.13333333333333333	818.3444795712123	437.88322397470637	0.0	811.7513351339767	442.1624052189533	0.0	782.6662396021319	510.5100535163907	0.0	808.4405924505129	532.9035179894674	0.0	831.7229031160638	537.571317203403	0.0	855.5239296028556	560.2030882663327	0.0	783.9435681228815	533.3352556867138	0.0	796.3293209135044	438.98128064823504	0.0	831.2775745850398	477.611008217407	0.0	816.6621744161807	550.4726176270927	0.0	834.0635800837717	560.7034736000801	0.0	830.7843950659433	566.5020621247243	0.0	804.9242104866015	558.1337716581846	0.0	833.486173228811	365.6796425369017	0.0	854.8699358006514	327.7683388429389	0.0	885.1366030016534	353.09613902956363	0.0	844.082180453606	385.52149992921227	0.0	863.9170129135421	413.89763089383257	0.0	869.0083064701153	378.0863505392479	0.0	821.3375608173355	374.2451546401836	0.0	881.5091439751243	387.3036688117145	0.0	933.801130738449	396.58017994592865	0.0
5	0.16666666666666666	826.8202803223397	441.7916878393245	0.0	823.7599718274327	445.4715235481674	0.0	796.5500454746203	511.9998445617072	0.0	807.3892303498716	531.4680690349227	0.0	826.2972538469256	538.6070128370475	0.0	844.9657105846416	555.2638543560251	0.0	787.2595562267338	531.1567079133833	0.0	806.9770889243503	442.93286947611296	0.0	838.7457054254144	485.38337109298936	0.0	828.8495518774038	553.5533828176862	0.0	846.2012850509116	562.6323001311836	0.0	842.7948074011113	567.1562317757734	0.0	818.9260182944615	561.51666454268	0.0	841.0382387882728	371.2987024049106	0.0	859.4558940969067	334.91040960210626	0.0	884.0849343729826	358.20500346570134	0.0	853.5768120239235	388.8726002741596	0.0	871.1559239430748	417.5933797014019	0.0	873.4224672926301	390.25455858458895	0.0	827.634232971153	378.6942869138044	0.0	874.2745274644647	396.0974807061111	0.0	924.2265109749858	404.4054446420047	0.0
6	0.2	835.3004460775117	445.6472758614921	0.0	835.8462813661264	448.70022454953096	0.0	810.2907911716507	513.4160866500721	0.0	805.6585302436564	530.2305173871606	0.0	820.4136220598418	540.005833821281	0.0	833.8361386490385	550.431947790012	0.0	790.1747473512818	529.2066396299543	0.0	817.6149828803094	446.8198621496184	0.0	846.1879610642774	493.22001123263556	0.0	841.1919326311208	556.6225152609867	0.0	858.5519528924501	564.3716382589566	0.0	854.9898784175774	567.653280116853	0.0	833.1503267414938	564.9123711100972	0.0	848.4885636887242	376.94801212221756	0.0	863.8501844160119	342.13274722026574	0.0	882.7170716467714	363.29421745131174	0.0	863.0809169907947	392.19647794355495	0.0	878.3750904750557	421.23149139191594	0.0	877.6058835606754	402.2990784095155	0.0	833.7967880904893	383.085169786532	0.0	866.803479216646	405.1697268199766	0.0	914.7687922644194	412.21991514713415	0.0
7	0.23333333333333334	843.7593766978848	449.4660020213079	0.0	848.0504373794101	451.9005820914457	0.0	823.9874774468265	514.7356088480102	0.0	803.1739501717377	529.1854088307815	0.0	813.8463419551667	541.7686774712354	0.0	821.8514141451703	545.7983051945644	0.0	792.5533044078331	527.467278989141	0.0	828.2047158148498	450.6628818138871	0.0	853.5830478204304	501.20005275709576	0.0	853.800202336675	559.6984312874785	0.0	871.1565505192473	566.1064930327661	0.0	867.3951245378033	568.097861190568	0.0	847.7176333585675	568.3584838262327	0.0	855.8407602659936	382.519072161126	0.0	868.1021165773678	349.35903737861855	0.0	881.0310539466152	368.283289852702	0.0	872.6227851675449	395.4399510839855	0.0	885.6032868543905	424.88752930106955	0.0	881.5084483826656	414.33578173857916	0.0	839.8548589060463	387.26382165758804	0.0	858.8148650138675	414.31142042868044	0.0	905.1767802807167	420.0478864995026	0.0
8	0.26666666666666666	852.1558278894164	453.48514106883067	0.0	860.0801576541501	455.4580858010898	0.0	838.3314156692849	516.2481920297878	0.0	802.7359964911642	527.4928521511723	0.0	808.3278557603924	542.3640367426539	0.0	811.1708693608022	540.990772921502	0.0	795.9659322613318	524.9587693018794	0.0	838.7538442219886	454.7527479833831	0.0	861.0211607278319	509.1223501145339	0.0	866.1184928516011	562.8465135210718	0.0	883.1526110175795	568.8005479395471	0.0	879.2538101192284	569.2458149660425	0.0	861.7957520144041	571.834235447787	0.0	863.5272482623539	387.78790875447453	0.0	873.0641579845595	356.18277962641514	0.0	880.3594080629189	373.1836660129064	0.0	882.1874090160072	398.67066804463525	0.0	892.9492574313927	428.87168945150245	0.0	886.0593298460828	426.9892253725676	0.0	846.4005846529	391.3393792721575	0.0	851.0570614395211	422.1621313070546	0.0	894.7344763426302	427.95635360981714	0.0
9	0.3	860.5426933492196	458.0706733019652	0.0	871.1786975017574	459.83426343678764	0.0	854.1215954806753	518.6190156061997	0.0	810.0102307079626	523.5957288226966	0.0	808.2799323138939	538.8971933602168	0.0	807.3187511880977	534.842659467075	0.0	804.0704315175695	519.9227656873383	0.0	849.4721418927114	459.5329479223996	0.0	868.7812437280489	516.2032348904805	0.0	876.5315262905724	566.0960940000949	0.0	892.7033325149836	573.3275937269146	0.0	889.0075640414045	571.9890482828192	0.0	873.198871827164	575.1084531977845	0.0	872.3455988612457	392.8859407884836	0.0	880.0931927752572	362.2265769611368	0.0	883.2267844870237	378.427994583706	0.0	891.6019854574067	402.2878769236754	0.0	900.4712616148668	433.38345423500414	0.0	893.2678610374492	440.8462696911017	0.0	854.4000653801149	396.304151482098	0.0	846.3780597085502	427.22181958918145	0.0	883.3735268319886	435.94766423254134	0.0
10	0.3333333333333333	869.1751212515248	463.1609924623368	0.0	880.821016851551	464.65561529827664	0.0	871.0846206334511	522.1021389206394	0.0	827.573937856116	517.2538364321395	0.0	817.1040296839179	530.6867313423076	0.0	814.8672681368522	526.6060028035023	0.0	819.4468931988322	512.2065861370668	0.0	860.5128072730892	464.80016216386974	0.0	877.20429536101	521.5218969513853	0.0	883.4709292935136	569.2575872217926	0.0	898.6337126632803	578.4195147816199	0.0	895.6512370500154	575.7353845031107	0.0	880.0251879997834	577.6973943958808	0.0	882.5426386443697	398.55308922104905	0.0	889.2476331365975	367.8419169125412	0.0	890.527342835072	384.5710862777921	0.0	900.6425486559791	406.78860286398975	0.0	907.9272441082339	437.8122857462867	0.0	904.025136927944	454.80167460131156	0.0	864.0852065803915	403.4917061740066	0.0	848.2242907407132	430.7180131759855	0.0	874.6213183013696	443.684209562858	0.0
